Coordinates
version=1
nRows=13
nColumns=40
inDegrees=yes

Units are S.I. units (second, meters, Newtons, ...)
Angles are in degrees.

endheader
time	pelvis_tilt	pelvis_list	pelvis_rotation	pelvis_tx	pelvis_ty	pelvis_tz	hip_flexion_r	hip_adduction_r	hip_rotation_r	knee_angle_r	knee_angle_r_beta	ankle_angle_r	subtalar_angle_r	mtp_angle_r	hip_flexion_l	hip_adduction_l	hip_rotation_l	knee_angle_l	knee_angle_l_beta	ankle_angle_l	subtalar_angle_l	mtp_angle_l	lumbar_extension	lumbar_bending	lumbar_rotation	arm_flex_r	arm_add_r	arm_rot_r	elbow_flex_r	pro_sup_r	wrist_flex_r	wrist_dev_r	arm_flex_l	arm_add_l	arm_rot_l	elbow_flex_l	pro_sup_l	wrist_flex_l	wrist_dev_l
      9.12750000	     -2.32772633	     -4.03801699	      3.55814824	      1.07867799	      0.91617405	      0.47230432	     24.40269015	     -0.56720864	    -14.61693877	     24.49036193	     24.49036193	      4.06256524	     -9.73472498	     -3.29120715	     -0.45540701	     -9.40631512	     -7.44661067	     36.82332720	     36.82332720	     11.30915895	    -11.78211520	    -15.96420580	     -8.95937137	      5.76812644	      0.31801286	    -11.43877439	    -12.29993797	    -12.92323718	     22.71894336	     46.91659135	      0.00000000	      0.00000000	     18.79794819	    -16.73143372	     -6.13982021	     82.52806616	     47.97482176	      0.00000000	      0.00000000
      9.13857143	     -2.31739542	     -4.42018983	      3.83550684	      1.07860496	      0.91759118	      0.47431204	     23.46772864	     -0.03145962	    -15.13751935	     23.95197479	     23.95197479	      4.64949476	     -9.32260221	     -3.49459307	      1.71377248	    -10.28728133	     -6.48758491	     41.16119926	     41.16119926	      9.25746831	    -13.59782134	    -15.38538240	     -9.08783676	      6.18697309	      0.50152171	     -9.94507077	    -12.40419884	    -12.84802552	     23.31669242	     46.89769602	      0.00000000	      0.00000000	     17.82026811	    -16.28072000	     -5.86374531	     81.45585734	     47.93443897	      0.00000000	      0.00000000
      9.14964286	     -2.34625620	     -4.64890277	      4.12196030	      1.07825274	      0.91895625	      0.47594884	     22.59025105	      0.28291217	    -15.75335982	     23.43690074	     23.43690074	      5.13939402	     -8.65397905	     -4.00770174	      4.12565898	    -10.75004677	     -5.17829790	     45.64532668	     45.64532668	      8.29014518	    -15.07540026	    -11.47078837	     -9.10555241	      6.45916284	      0.77572951	     -8.39480688	    -12.58598343	    -12.30191052	     23.96256756	     46.82923647	      0.00000000	      0.00000000	     17.34429676	    -15.55175325	     -5.68103064	     78.91389047	     47.89311156	      0.00000000	      0.00000000
      9.16071429	     -2.35590230	     -5.03244088	      4.42312828	      1.07776815	      0.92018497	      0.47761865	     21.66165107	      0.83480737	    -16.25817408	     22.78245699	     22.78245699	      5.55076429	     -8.26736956	     -4.12208319	      6.53947351	    -11.45998143	     -4.13030336	     49.77443403	     49.77443403	      6.44733691	    -16.47132436	    -10.31161201	     -9.23643857	      6.86780293	      0.94272162	     -6.76043711	    -12.76076781	    -12.23290728	     24.70763233	     46.80515568	      0.00000000	      0.00000000	     16.29176804	    -15.12195284	     -5.29191594	     77.80474081	     47.84300571	      0.00000000	      0.00000000
      9.17178571	     -2.40172117	     -5.21293179	      4.69535998	      1.07704998	      0.92136184	      0.47894979	     20.79850693	      1.11272838	    -16.84205962	     22.18835375	     22.18835375	      5.85250356	     -7.59215587	     -4.67751181	      9.29011688	    -11.67447750	     -2.83867219	     54.28304452	     54.28304452	      7.69559004	    -16.41351560	     -1.87627586	     -9.27691762	      7.09226053	      1.30271822	     -5.26949126	    -13.03891971	    -11.52397510	     25.84164016	     46.69676110	      0.00000000	      0.00000000	     15.92903002	    -14.38411008	     -4.83097442	     74.82331113	     47.77161172	      0.00000000	      0.00000000
      9.18285714	     -2.40304292	     -5.54479267	      4.99272829	      1.07632436	      0.92237992	      0.48033683	     19.90290000	      1.62391991	    -17.26413376	     21.55151692	     21.55151692	      6.18471051	     -7.27764510	     -4.73116689	     11.72844283	    -12.16790262	     -1.85280610	     57.76346258	     57.76346258	      6.37267282	    -17.42953444	     -1.01266577	     -9.42845503	      7.42801032	      1.47005168	     -3.48138156	    -13.28207308	    -11.47161491	     26.70446086	     46.67015078	      0.00000000	      0.00000000	     14.80648784	    -13.94345016	     -4.39918517	     73.72359169	     47.71706160	      0.00000000	      0.00000000
      9.19392857	     -2.42538007	     -5.68523820	      5.25683348	      1.07544441	      0.92343265	      0.48146145	     19.05272241	      1.87897917	    -17.74959551	     20.98141446	     20.98141446	      6.43247170	     -6.66617140	     -5.16465805	     14.35461420	    -12.27061877	     -0.83430428	     61.28262478	     61.28262478	      7.65801696	    -17.38467585	      5.68646476	     -9.52585893	      7.60167898	      1.77032351	     -1.83139443	    -13.60908709	    -10.74934831	     28.06133873	     46.55590994	      0.00000000	      0.00000000	     14.40926996	    -13.27054435	     -3.94082207	     70.47489976	     47.63188056	      0.00000000	      0.00000000
      9.20500000	     -2.43906330	     -5.87879155	      5.50223165	      1.07452830	      0.92438598	      0.48269405	     18.18856620	      2.25791311	    -18.06432479	     20.34836690	     20.34836690	      6.66023465	     -6.32542157	     -5.33561290	     16.80225842	    -12.49926482	     -0.05165872	     64.05607226	     64.05607226	      7.89768084	    -17.71182643	      8.46239806	     -9.67057639	      7.75632674	      2.03102886	     -0.12396753	    -13.94704519	    -10.14148414	     29.46821899	     46.45019403	      0.00000000	      0.00000000	     13.54484066	    -12.79229135	     -3.33458129	     68.45466039	     47.55118176	      0.00000000	      0.00000000
      9.21607143	     -2.45869297	     -6.09005142	      5.74399578	      1.07357827	      0.92522146	      0.48391468	     17.36465743	      2.66607434	    -18.34345578	     19.75648097	     19.75648097	      6.92953626	     -6.02930894	     -5.33979085	     19.12175457	    -12.78999064	      0.55681731	     66.18778912	     66.18778912	      7.58355264	    -18.14553103	      8.65407352	     -9.81751373	      7.90914994	      2.18525544	      1.88390299	    -14.19298405	    -10.10251168	     30.45974080	     46.42074763	      0.00000000	      0.00000000	     12.31656726	    -12.39230212	     -2.94157097	     67.14562432	     47.49110755	      0.00000000	      0.00000000
      9.22714286	     -2.45174254	     -6.16154491	      5.94146979	      1.07258934	      0.92620899	      0.48502082	     16.48051158	      2.92256849	    -18.63420249	     19.12913125	     19.12913125	      7.13249413	     -5.54413106	     -5.56984383	     21.37539594	    -12.86738304	      1.04381141	     67.93814683	     67.93814683	      8.38682742	    -18.24383444	     11.12854729	     -9.96398106	      7.92395174	      2.48513841	      3.77877309	    -14.53712241	     -9.34592233	     31.82683233	     46.31278099	      0.00000000	      0.00000000	     11.87813003	    -11.72016658	     -2.61170964	     63.63326389	     47.40562503	      0.00000000	      0.00000000
      9.23821429	     -2.46173714	     -6.24162298	      6.13390027	      1.07153787	      0.92710161	      0.48612891	     15.62745082	      3.20307336	    -18.86922555	     18.50433272	     18.50433272	      7.35217562	     -5.13480493	     -5.66145174	     23.52223019	    -12.97978277	      1.39140341	     69.08131808	     69.08131808	      8.82697675	    -18.39933363	     11.98530572	    -10.11825080	      7.91534663	      2.64996105	      5.78507028	    -14.83586522	     -8.81227615	     33.22310673	     46.22348841	      0.00000000	      0.00000000	     10.99088755	    -11.24836772	     -2.22860925	     61.12944839	     47.32632247	      0.00000000	      0.00000000
      9.24928571	     -2.47603392	     -6.19547438	      6.18983320	      1.07046487	      0.92795896	      0.48727242	     14.88221907	      3.35869943	    -18.85779570	     18.10242169	     18.10242169	      7.65144401	     -4.92142789	     -5.68106100	     25.44484675	    -13.03824477	      1.39811242	     69.59182121	     69.59182121	      9.05967363	    -18.56820359	     11.85413589	    -10.35406685	      7.71011985	      3.21578144	      7.87398107	    -15.19845179	     -8.83670043	     34.14788003	     46.20322005	      0.00000000	      0.00000000	      9.76541918	    -10.60152652	     -1.87057318	     60.23397273	     47.27349148	      0.00000000	      0.00000000
      9.26035714	     -2.53189932	     -6.38575110	      6.46262463	      1.06937391	      0.92876630	      0.48828225	     13.91549058	      3.80804637	    -19.20787471	     17.10793375	     17.10793375	      7.78512380	     -4.36150229	     -5.59545833	     27.47190959	    -13.20164759	      1.72796586	     69.67694747	     69.67694747	      9.43561269	    -18.62796896	     12.02599538	    -10.37876296	      7.81213779	      2.52659470	     10.40710129	    -14.98573969	     -8.70171753	     35.67747626	     46.14880661	      0.00000000	      0.00000000	      8.35186944	    -10.71021501	     -1.58068237	     57.47523230	     47.19765612	      0.00000000	      0.00000000
